<?xml version="1.0" encoding="UTF-8"?>
<svg id="Layer_1" data-name="Layer 1" xmlns="http://www.w3.org/2000/svg" version="1.1" xmlns:xlink="http://www.w3.org/1999/xlink" viewBox="0 0 172 42">
  <defs>
    <style>
      .cls-1 {
        fill: url(#linear-gradient);
      }

      .cls-1, .cls-2, .cls-3, .cls-4, .cls-5, .cls-6, .cls-7 {
        stroke-width: 0px;
      }

      .cls-2 {
        fill: url(#linear-gradient-6);
      }

      .cls-3 {
        fill: url(#linear-gradient-5);
      }

      .cls-4 {
        fill: url(#linear-gradient-2);
      }

      .cls-5 {
        fill: url(#linear-gradient-7);
      }

      .cls-6 {
        fill: url(#linear-gradient-3);
      }

      .cls-7 {
        fill: url(#linear-gradient-4);
      }
    </style>
    <linearGradient id="linear-gradient" x1="5.6" y1="21.9" x2="27.8" y2="21.9" gradientUnits="userSpaceOnUse">
      <stop offset="0" stop-color="#000cbf"/>
      <stop offset="1" stop-color="#009ee9"/>
    </linearGradient>
    <linearGradient id="linear-gradient-2" x1="30.6" y1="25.4" x2="49.4" y2="25.4" xlink:href="#linear-gradient"/>
    <linearGradient id="linear-gradient-3" x1="52.2" y1="25.6" x2="73.5" y2="25.6" xlink:href="#linear-gradient"/>
    <linearGradient id="linear-gradient-4" x1="74" y1="25.7" x2="106.6" y2="25.7" xlink:href="#linear-gradient"/>
    <linearGradient id="linear-gradient-5" x1="108.4" y1="20.8" x2="122.2" y2="20.8" xlink:href="#linear-gradient"/>
    <linearGradient id="linear-gradient-6" x1="123.4" y1="25.6" x2="144.7" y2="25.6" xlink:href="#linear-gradient"/>
    <linearGradient id="linear-gradient-7" x1="144.2" y1="25.7" x2="166.4" y2="25.7" xlink:href="#linear-gradient"/>
  </defs>
  <path class="cls-1" d="M17.6,36.6c-1.5,0-2.8-.1-4-.4-1.2-.3-2.3-.7-3.2-1.2-1-.5-1.8-1.1-2.6-1.8-.8-.7-1.5-1.5-2.1-2.3l5.5-4.7c.8,1.3,1.7,2.3,2.8,3,1.1.7,2.4,1.1,3.9,1.1s1.9-.2,2.5-.7c.6-.5.8-1.1.8-1.9s-.1-.9-.3-1.2c-.2-.3-.6-.6-1-.8-.5-.2-1-.5-1.7-.6-.7-.2-1.5-.4-2.5-.6-1-.2-2-.5-3-.9-1-.4-1.9-.8-2.7-1.4-.8-.6-1.5-1.4-2-2.4-.5-1-.8-2.2-.8-3.6s.2-2.4.7-3.5c.5-1.1,1.2-2,2-2.8.9-.8,1.9-1.4,3.1-1.8,1.2-.4,2.5-.7,4-.7s2.3.1,3.4.3c1,.2,1.9.5,2.8,1,.8.4,1.6,1,2.4,1.6.7.6,1.5,1.4,2.2,2.2l-5.2,4.3c-.6-1.1-1.4-1.9-2.3-2.5-.9-.6-2-.9-3.4-.9s-1.9.3-2.4.8-.8,1.1-.8,1.8.1.8.4,1.1c.3.3.6.5,1.1.7s1.1.4,1.7.5c.7.2,1.4.4,2.2.6,1,.2,2,.5,3.1.9,1,.4,2,.8,2.8,1.5s1.5,1.5,2.1,2.4c.5,1,.8,2.3.8,3.8s-.3,2.6-.8,3.7-1.2,2.1-2.1,3c-.9.8-2,1.5-3.2,2-1.3.5-2.6.7-4.1.7Z"/>
  <path class="cls-4" d="M30.6,15.1h6.2v2.5c.6-.9,1.4-1.6,2.3-2.1.9-.5,1.9-.8,3-.8,2.2,0,4,.7,5.3,2.2,1.3,1.5,2,3.5,2,6.1v13.3h-6.4v-11.9c0-1.2-.2-2.2-.7-2.8-.5-.7-1.3-1-2.3-1s-1.7.3-2.2,1c-.6.7-.9,1.7-.9,3.1v11.6h-6.3V15.1Z"/>
  <path class="cls-6" d="M62.8,36.6c-1.5,0-3-.3-4.3-.9-1.3-.6-2.4-1.4-3.4-2.3-.9-1-1.7-2.2-2.2-3.5-.5-1.3-.8-2.7-.8-4.3s.3-2.9.8-4.3c.5-1.3,1.3-2.5,2.2-3.5.9-1,2.1-1.8,3.4-2.4,1.3-.6,2.7-.9,4.3-.9s2.9.3,4.2.9c1.3.6,2.4,1.4,3.4,2.4,1,1,1.7,2.2,2.2,3.5.5,1.3.8,2.8.8,4.3s-.3,2.9-.8,4.3c-.5,1.3-1.3,2.5-2.2,3.5-.9,1-2.1,1.8-3.4,2.3-1.3.6-2.7.9-4.3.9ZM62.9,30.4c.6,0,1.2-.1,1.8-.4.6-.2,1-.6,1.4-1,.4-.4.7-.9,1-1.5.2-.6.4-1.2.4-1.9s-.1-1.3-.4-1.9c-.2-.6-.6-1.1-1-1.5s-.9-.8-1.4-1c-.6-.2-1.1-.4-1.8-.4s-1.2.1-1.8.4c-.6.2-1,.6-1.4,1-.4.4-.7.9-1,1.5-.2.6-.4,1.2-.4,1.9s.1,1.3.4,1.9c.2.6.6,1.1,1,1.5.4.4.9.8,1.4,1,.6.2,1.1.4,1.8.4Z"/>
  <path class="cls-7" d="M74,15.1h6.2l3.4,12.1,4-12.1h5.2l3.9,12.2,3.6-12.2h6.2l-6.6,21.1h-5.8l-4.1-12-4.1,12h-5.8l-6.3-21.1Z"/>
  <path class="cls-3" d="M108.4,15.1h3.1v-.3c0-1.8.2-3.3.5-4.5.3-1.2.8-2.2,1.5-2.9s1.6-1.3,2.8-1.6c1.2-.3,2.6-.5,4.3-.5h1.7v6h-1c-.8,0-1.5,0-1.9,0-.5,0-.8.2-1.1.4-.2.2-.4.5-.5.9,0,.4-.1.9-.1,1.5v.8h4.6v5.9h-4.6v15.2h-6.2v-15.2h-3.1v-5.9Z"/>
  <path class="cls-2" d="M134,36.6c-1.5,0-3-.3-4.3-.9-1.3-.6-2.4-1.4-3.4-2.3s-1.7-2.2-2.2-3.5c-.5-1.3-.8-2.7-.8-4.3s.3-2.9.8-4.3c.5-1.3,1.3-2.5,2.2-3.5.9-1,2.1-1.8,3.4-2.4s2.7-.9,4.3-.9,2.9.3,4.2.9c1.3.6,2.4,1.4,3.4,2.4,1,1,1.7,2.2,2.2,3.5.5,1.3.8,2.8.8,4.3s-.3,2.9-.8,4.3c-.5,1.3-1.3,2.5-2.2,3.5s-2.1,1.8-3.4,2.3c-1.3.6-2.7.9-4.3.9ZM134,30.4c.6,0,1.2-.1,1.8-.4.6-.2,1-.6,1.4-1,.4-.4.7-.9,1-1.5.2-.6.4-1.2.4-1.9s-.1-1.3-.4-1.9c-.2-.6-.6-1.1-1-1.5-.4-.4-.9-.8-1.4-1-.6-.2-1.1-.4-1.8-.4s-1.2.1-1.8.4c-.6.2-1,.6-1.4,1-.4.4-.7.9-1,1.5-.2.6-.3,1.2-.3,1.9s.1,1.3.3,1.9c.2.6.6,1.1,1,1.5.4.4.9.8,1.4,1,.6.2,1.1.4,1.8.4Z"/>
  <path class="cls-5" d="M151.5,25.3l-6.8-10.2h7.3l3.4,5.3,3.3-5.3h7.2l-6.8,10.3,7.4,10.8h-7.4l-3.8-5.6-3.7,5.6h-7.3l7.3-10.9Z"/>
</svg>